<svg aria-hidden="true" style="width:0;height:0;position:absolute;overflow:hidden" xmlns="http://www.w3.org/2000/svg"><defs><symbol id="icon-logo" viewBox="0 0 32 32"><path d="M0 16C0 7.164 7.163 0 16 0h16v16c0 8.837-7.163 16-16 16H0V16z"/><path fill="#1ebb92" style="fill:var(--color2,#1ebb92)" d="M27 16a3 3 0 0 1-3 3h-2a3 3 0 1 1 0-6h2a3 3 0 0 1 3 3z"/><path fill="#fff" style="fill:var(--color3,#fff)" d="M12.906 8.094a3.094 3.094 0 1 1 6.188 0v4.813h.021a4.107 4.107 0 0 0-1.396 3.089v.01c0 1.228.538 2.331 1.392 3.085l.004.004h-.021v4.812a3.094 3.094 0 1 1-6.188 0v-4.812H8.093a3.094 3.094 0 1 1 0-6.188h4.813V8.094z"/></symbol><symbol id="icon-burger" viewBox="0 0 48 32"><path d="M0 5.334V0h48v5.334H0zm0 13.332h48v-5.332H0v5.332zM0 32h48v-5.334H0V32z"/></symbol><symbol id="icon-telegram" viewBox="0 0 32 32"><path d="M32 0 0 18l10.227 3.787L26 7 14.003 23.187l.009.003-.012-.003V32l5.735-6.691L27.002 28l4.999-28z"/></symbol><symbol id="icon-close" viewBox="0 0 32 32"><path d="M32 3.223 28.777 0 16 12.777 3.223 0 0 3.223 12.777 16 0 28.777 3.223 32 16 19.223 28.777 32 32 28.777 19.223 16 32 3.223z"/></symbol><symbol id="icon-viber" viewBox="0 0 32 32"><path fill="#7d529c" style="fill:var(--color1,#7d529c)" d="M5.627 26.433a14.023 14.023 0 0 1-1.87-2.284 14.528 14.528 0 0 1-2.4-7.188 14.543 14.543 0 0 1 .012-2.056c.216-2.649 1.064-5.081 2.596-7.259 2.089-2.969 4.898-4.919 8.406-5.855a14.158 14.158 0 0 1 2.364-.403c.67-.062 1.342-.077 2.012-.044 2.815.145 5.384 1.013 7.704 2.619a14.928 14.928 0 0 1 1.997 1.668c.018.018.03.039.044.056-.018.074-.077.113-.127.16-1.23 1.23-2.459 2.462-3.692 3.689a.318.318 0 0 0-.098.157c-.083.003-.098-.08-.151-.116-1.378-1.396-3.031-2.255-4.972-2.542-.471-.071-.948-.133-1.428-.124a.51.51 0 0 0-.353.13.404.404 0 0 0-.107.459c.074.172.204.276.397.279.43.009.859.039 1.283.098.551.08 1.093.21 1.621.4.907.32 1.704.818 2.436 1.437.065.053.121.116.181.175.121.145.281.258.391.415-.08.139-.201.24-.323.338-.11.092-.204.199-.311.293-.059.05-.053.124-.089.181-.062.003-.086-.05-.121-.086-.833-.898-1.87-1.416-3.049-1.686a10.736 10.736 0 0 0-1.141-.178c-.21-.024-.388.041-.492.231a.428.428 0 0 0 .347.634c.35.036.696.077 1.04.151.853.187 1.636.519 2.299 1.099.116.121.234.237.353.356.027.027.065.047.065.092-.255.24-.48.51-.756.729a.108.108 0 0 1-.044-.003c-.216-.219-.441-.421-.717-.566a3.268 3.268 0 0 0-1.609-.382c-.181.003-.32.133-.361.317-.044.204.033.385.207.477.098.05.204.065.314.074.436.033.844.136 1.212.388.116.08.213.175.302.281.021.033.036.065.03.107-1.215 1.215-2.421 2.439-3.647 3.639-.498.486-.99.978-1.484 1.467-.101-.021-.133-.121-.207-.172a8.444 8.444 0 0 1-1.055-1.479 8.965 8.965 0 0 1-.717-1.576c-.169-.504-.047-.93.359-1.274.222-.19.459-.359.681-.545.4-.335.53-.767.459-1.271-.053-.37-.273-.664-.45-.975-.542-.945-1.233-1.787-1.923-2.625-.364-.441-.96-.56-1.52-.252-.83.453-1.544 1.052-2.036 1.876-.317.53-.394 1.087-.175 1.701.308.853.673 1.677 1.084 2.48.533 1.037 1.093 2.056 1.751 3.022.56.827 1.17 1.615 1.855 2.341.047.08.116.139.178.204.039.041.092.074.086.142-.065.086-.157.151-.231.225-1.452 1.455-2.898 2.913-4.359 4.356-.646.637-1.295 1.274-1.938 1.914-.027.036-.059.077-.113.086z"/><path fill="#3f284f" style="fill:var(--color2,#3f284f)" d="M19.704 12.444c.222-.225.444-.453.67-.679.015-.015.041-.021.065-.03.08.006.116.071.157.121.681.827 1.04 1.778 1.111 2.844.015.222.015.444.027.664a.446.446 0 0 0 .32.403.436.436 0 0 0 .477-.19.398.398 0 0 0 .068-.237c.03-1.028-.157-2.012-.607-2.942a5.104 5.104 0 0 0-.738-1.123c-.044-.05-.104-.095-.095-.175-.027-.059-.024-.104.03-.154.228-.21.45-.424.673-.637.083.006.127.074.175.127.921 1.055 1.481 2.284 1.745 3.656a10.6 10.6 0 0 1 .204 2.071c-.003.293.169.492.415.504.27.012.468-.178.48-.468.012-.228-.021-.453-.036-.679a13.398 13.398 0 0 0-.193-1.526c-.279-1.446-.836-2.761-1.772-3.908-.068-.083-.151-.157-.19-.261.071-.095.13-.018.181.021.406.299.806.601 1.209.904 2.163 1.624 4.329 3.244 6.492 4.868.056.041.113.08.151.142.009.545.003 1.09-.047 1.636-.08.856-.231 1.701-.456 2.53a14.852 14.852 0 0 1-2.862 5.493 14.552 14.552 0 0 1-1.932 1.929 14.744 14.744 0 0 1-3.233 2.041 14.424 14.424 0 0 1-3.161 1.04c-.48.098-.966.166-1.449.231-.11.015-.222.015-.335.024-.071-.024-.089-.089-.116-.145l-1.079-2.356c-.341-.75-.681-1.499-1.025-2.249-.347-.753-.69-1.508-1.037-2.261s-.687-1.508-1.034-2.261c-.196-.427-.382-.856-.587-1.277-.027-.053-.098-.113-.021-.181.098.003.16.074.222.133.439.418.892.821 1.369 1.2a20.958 20.958 0 0 0 2.193 1.517 35.01 35.01 0 0 0 3.016 1.612c.516.249 1.052.453 1.597.628.436.139.859.071 1.268-.113.332-.148.622-.356.886-.61.444-.433.844-.898 1.15-1.443.163-.287.243-.593.207-.924a1.08 1.08 0 0 0-.397-.723c-.699-.578-1.39-1.173-2.16-1.659-.308-.196-.616-.394-.939-.566-.35-.184-.711-.243-1.102-.136-.299.083-.513.267-.696.498-.175.219-.344.444-.524.661-.299.359-.687.456-1.12.35-.652-.16-1.256-.441-1.831-.785a7.288 7.288 0 0 1-1.49-1.185c-.044-.044-.119-.08-.098-.166.006-.062.053-.092.092-.13l4.907-4.88c.039-.039.071-.083.13-.092.074 0 .095.065.124.113.231.37.32.779.356 1.206.006.08.006.157.027.234.068.24.267.373.501.332a.438.438 0 0 0 .353-.462c-.039-.72-.19-1.404-.64-1.994-.027-.033-.062-.071-.044-.127z"/><path fill="#5f3e77" style="fill:var(--color3,#5f3e77)" d="M12.364 19.964c-.044.041-.003.071.012.104.468 1.016.936 2.03 1.401 3.046.427.927.847 1.852 1.271 2.779l1.431 3.129c.255.554.51 1.108.764 1.665-.444.021-.886.041-1.33.039a14.545 14.545 0 0 1-7.31-1.997 14.597 14.597 0 0 1-2.865-2.181c-.039-.039-.074-.077-.113-.119.041-.047.083-.098.127-.142 2.13-2.092 4.237-4.21 6.35-6.32a.504.504 0 0 1 .166-.121c.074.006.113.041.095.119zM30.72 15.763c-.279-.169-.524-.379-.782-.572-1.295-.966-2.587-1.938-3.879-2.907a2265.6 2265.6 0 0 1-3.23-2.424c-.041-.03-.077-.062-.13-.056-.071-.012-.136-.03-.121-.124-.044-.086.024-.124.071-.172l3.247-3.247c.196-.196.394-.385.593-.578a13.733 13.733 0 0 1 1.864 2.308 14.512 14.512 0 0 1 2.11 5.23c.151.785.237 1.576.261 2.376.003.059 0 .113-.003.166z"/><path fill="#dcdcdc" style="fill:var(--color4,#dcdcdc)" d="M12.364 19.964c-.003-.062-.047-.089-.092-.119-.086-.113-.216-.187-.279-.32.101-.024.136.062.187.116.08.086.133.095.228.009.456-.406.868-.859 1.307-1.283.059-.059.092-.116.021-.19-.027-.03-.05-.065-.018-.107.077.039.116.119.178.172a7.238 7.238 0 0 0 3.381 2.092c.45.124.841.027 1.144-.341.163-.199.329-.394.477-.604.516-.744 1.369-.714 1.932-.394a17.54 17.54 0 0 1 2.735 1.944c.083.071.169.139.252.207.504.421.649.981.353 1.567-.43.85-1.025 1.57-1.834 2.089-.492.317-1.034.462-1.612.276a13.4 13.4 0 0 1-1.781-.72c-1.407-.687-2.782-1.431-4.068-2.329a18.71 18.71 0 0 1-2.296-1.887c-.068-.062-.142-.119-.213-.178z"/><path fill="#fefefe" style="fill:var(--color5,#fefefe)" d="M13.719 18.074v.015c.116.207.116.207-.068.391-.332.332-.661.664-.993.993-.098.098-.204.184-.305.279-.047.044-.08.036-.124-.006-.08-.071-.136-.169-.237-.216-.4-.391-.75-.827-1.09-1.268-1.363-1.772-2.415-3.724-3.31-5.763a7.927 7.927 0 0 1-.394-1.114c-.151-.554.024-1.052.302-1.523.311-.521.756-.921 1.224-1.295.302-.24.613-.468.981-.601.519-.19 1.04-.053 1.387.376.459.566.936 1.123 1.348 1.727.311.456.613.921.865 1.413.249.495.237.99-.05 1.47-.133.222-.359.35-.548.513-.148.13-.314.24-.459.37-.329.287-.453.661-.323 1.07a8.857 8.857 0 0 0 1.591 2.921l.204.249zM21.481 9.926a8.362 8.362 0 0 0-1.479-1.081 7.764 7.764 0 0 0-2.924-.942 16.164 16.164 0 0 0-1.123-.08.467.467 0 0 1-.462-.477.478.478 0 0 1 .477-.468c2.166.021 4.119.64 5.796 2.044.243.201.477.412.69.649.059.065.056.127-.009.193-.148.148-.299.296-.447.447-.077.077-.145.08-.225 0-.092-.098-.181-.201-.293-.284z"/><path fill="#dcdcdc" style="fill:var(--color4,#dcdcdc)" d="M21.481 9.926c.13.041.196.157.281.246.083.083.139.098.225.006.136-.148.279-.287.424-.427.059-.056.071-.11.041-.178.062.012.059.095.119.113.024.056.08.083.121.124.293.356.581.72.824 1.114a9.02 9.02 0 0 1 1.164 3.052c.145.744.21 1.493.222 2.249a.466.466 0 0 1-.281.45.454.454 0 0 1-.489-.053.503.503 0 0 1-.193-.415 11.516 11.516 0 0 0-.116-1.594c-.24-1.624-.833-3.087-1.97-4.299-.121-.13-.246-.261-.373-.388z"/><path fill="#fefefe" style="fill:var(--color5,#fefefe)" d="M20.03 11.319a5.027 5.027 0 0 0-1.671-.927 7.358 7.358 0 0 0-1.624-.314c-.308-.027-.486-.216-.474-.51.012-.27.228-.459.53-.436 1.357.104 2.616.477 3.701 1.339.207.166.412.338.578.548.036.062.009.113-.036.157-.151.154-.305.308-.459.459-.074.074-.142.068-.216-.006-.107-.104-.204-.222-.329-.311z"/><path fill="#dcdcdc" style="fill:var(--color4,#dcdcdc)" d="M20.03 11.319c.142.05.219.178.317.279.089.092.145.086.228-.003.133-.145.276-.281.418-.421.044-.041.083-.083.077-.151.039.018.041.077.089.083a5.666 5.666 0 0 1 1.33 2.604 6.67 6.67 0 0 1 .151 1.633c-.009.293-.21.489-.486.483-.273-.006-.468-.21-.465-.507.006-.687-.074-1.357-.305-2.009a4.733 4.733 0 0 0-.945-1.576 53.74 53.74 0 0 1-.409-.415z"/><path fill="#fefefe" style="fill:var(--color5,#fefefe)" d="M18.987 13.07c-.394-.439-.91-.604-1.479-.655-.077-.006-.157-.012-.234-.03-.234-.05-.379-.258-.359-.507.018-.228.204-.424.439-.418.836.021 1.597.24 2.207.85.041.041.074.092.113.136.041.056-.003.092-.036.124-.16.166-.323.329-.489.489-.053.053-.107.074-.163.009z"/><path fill="#dcdcdc" style="fill:var(--color4,#dcdcdc)" d="M18.987 13.07c.041.012.08.03.121-.012.181-.187.367-.37.548-.554.012-.012.012-.036.018-.053l.03-.003c.495.619.684 1.342.729 2.119.015.249-.163.48-.394.516-.267.039-.501-.113-.545-.379-.047-.287-.05-.581-.133-.859-.074-.246-.163-.486-.332-.687-.015-.033-.03-.059-.041-.086z"/></symbol><symbol id="icon-phone" viewBox="0 0 32 32"><path fill="#7fc35c" style="fill:var(--color1,#7fc35c)" d="M15.858 12.801c0 .26.206.472.466.484a2.47 2.47 0 0 1 2.354 2.354c.013.26.224.466.484.466h.003a.485.485 0 0 0 .484-.509 3.445 3.445 0 0 0-3.283-3.283.485.485 0 0 0-.509.484z"/><path fill="#7fc35c" style="fill:var(--color1,#7fc35c)" d="M16.465 10.96c0 .262.209.475.471.484.908.031 1.807.392 2.499 1.084s1.053 1.59 1.084 2.498a.485.485 0 1 0 .969-.029c-.038-1.147-.493-2.282-1.367-3.155s-2.009-1.329-3.156-1.367a.485.485 0 0 0-.5.485z"/><path fill="#7fc35c" style="fill:var(--color1,#7fc35c)" d="M16.991 9.176c0 .261.207.478.468.484 1.232.031 2.454.514 3.392 1.452s1.421 2.16 1.452 3.392a.482.482 0 0 0 .484.467h.001a.487.487 0 0 0 .485-.502c-.039-1.469-.617-2.925-1.736-4.044s-2.576-1.697-4.045-1.736a.487.487 0 0 0-.502.484zM11.278 11.393l-.005.001zm.921 8.351c.183.174 3.487 3.269 5.757 2.732 2.237-.53 2.664-1.667 2.681-1.718a1.397 1.397 0 0 0-.001-.587c-.091-.422-.369-.767-.826-1.023-.597-.335-1.667-.797-2.116-.123-.411.616-.921.985-1.478 1.068-.549.082-1.115-.113-1.683-.579a15.421 15.421 0 0 1-2.007-2.016c-.466-.568-.661-1.134-.579-1.683.083-.556.452-1.067 1.068-1.478.674-.449.212-1.519-.123-2.116-.257-.458-.601-.736-1.023-.826a1.399 1.399 0 0 0-.585-.002c-.095.033-1.194.462-1.72 2.682-.204.862.112 2.027.914 3.37a15.168 15.168 0 0 0 1.722 2.3zm5.213 3.566c-2.605 0-5.62-2.883-5.759-3.017l-.016-.017a15.792 15.792 0 0 1-1.824-2.436c-.921-1.541-1.258-2.868-1.003-3.945.651-2.747 2.19-3.227 2.255-3.246.546-.158 1.769-.112 2.501 1.193.402.717.593 1.352.567 1.888-.026.535-.264.967-.69 1.251-.299.199-.669.526-.732.948-.048.324.09.687.412 1.079a14.708 14.708 0 0 0 1.899 1.909c.392.322.755.46 1.079.412.422-.063.748-.433.948-.732.284-.425.716-.664 1.251-.69.536-.026 1.171.165 1.888.567 1.304.732 1.351 1.955 1.193 2.5-.019.066-.499 1.606-3.247 2.256a3.102 3.102 0 0 1-.721.081z"/></symbol><symbol id="icon-infinity" viewBox="0 0 166 32"><path d="M166.125 19.303h-7.246c-.75-.854-1.538-1.297-2.343-1.316-1.217-.029-2.092.903-2.422 1.254a2.133 2.133 0 0 1-.059.062h-3.031a.181.181 0 0 0-.18.164l-.731 7.61L148.425.651a.18.18 0 0 0-.18-.169h-.001a.18.18 0 0 0-.18.168l-1.379 19.117-.162-.572a.182.182 0 0 0-.154-.131l-.962-.108-1.036-2.9a.181.181 0 0 0-.165-.12.176.176 0 0 0-.172.11l-1.281 3.019-3.714.057c-.785-.908-1.634-1.36-2.514-1.334-1.287.033-2.224 1.055-2.459 1.337l-2.632.058a.181.181 0 0 0-.176.163l-.792 7.817L128.712.17a.18.18 0 0 0-.36.001l-1.207 19.76-.21-.624a.18.18 0 0 0-.171-.123h-1.007l-1.033-3.123a.18.18 0 0 0-.17-.124.187.187 0 0 0-.172.121l-1.095 3.126h-8.554c.002-.224-.002-.449-.013-.673-.201-4.477-2.766-8.277-7.038-10.426-9.147-4.601-17.218 3.314-25.021 11.025C76.713 13.148 70.556 7.037 63.29 6.827c-4.015-.115-7.89 1.853-10.36 5.268-1.541 2.13-2.346 4.583-2.377 7.091l-7.07.058c-.745-.848-1.528-1.286-2.328-1.301-1.217-.027-2.105.936-2.437 1.297l-.057.062-3.025-.118a.184.184 0 0 0-.187.164l-.733 7.818L33.03.772a.18.18 0 0 0-.18-.169h-.001a.18.18 0 0 0-.18.168L31.29 19.888l-.162-.572a.182.182 0 0 0-.154-.131l-.962-.108-1.036-2.9a.181.181 0 0 0-.165-.12.187.187 0 0 0-.172.11l-1.281 3.019-3.715.057c-.785-.908-1.628-1.359-2.514-1.334-1.287.033-2.224 1.055-2.459 1.337l-2.633.058a.181.181 0 0 0-.176.163l-.792 7.817L13.315.291a.18.18 0 0 0-.181-.169.181.181 0 0 0-.18.17l-1.207 19.761-.21-.625a.18.18 0 0 0-.171-.123h-1.007l-1.033-3.123a.18.18 0 0 0-.17-.124.175.175 0 0 0-.172.121l-1.095 3.126H.183a.181.181 0 1 0 0 .362h7.835a.182.182 0 0 0 .171-.121l.962-2.746.907 2.743a.18.18 0 0 0 .172.124h1.007l.464 1.38a.181.181 0 0 0 .352-.046l1.089-17.822 1.709 26.301a.18.18 0 0 0 .177.169h.003a.18.18 0 0 0 .18-.163l.995-9.823 2.557-.057a.18.18 0 0 0 .14-.072c.009-.012.951-1.232 2.238-1.264.792-.02 1.556.408 2.281 1.271a.18.18 0 0 0 .138.065h.003l3.917-.06a.18.18 0 0 0 .164-.11l1.146-2.7.918 2.57a.18.18 0 0 0 .15.119l.953.107.409 1.446a.18.18 0 0 0 .354-.036L32.836 3.45l1.663 26.029a.18.18 0 0 0 .178.169h.003a.181.181 0 0 0 .18-.164l.932-9.932 2.925.114.023-.001c.084-.007.124-.051.244-.181.299-.324 1.087-1.18 2.129-1.18h.035c.712.013 1.424.43 2.115 1.238a.195.195 0 0 0 .139.063l7.151-.059c.023 1.367.276 2.746.764 4.095a12.529 12.529 0 0 0 5.986 6.839c2.869 1.505 6.203 1.843 9.385.951 5.55-1.554 10.847-6.75 15.97-11.812 3.862 3.871 7.857 7.858 12.133 10.217 2.613 1.442 5.216 2.164 7.675 2.164 2.209 0 4.303-.583 6.185-1.752 3.611-2.243 5.921-6.364 6.073-10.703h8.69a.182.182 0 0 0 .171-.121l.962-2.746.907 2.743a.18.18 0 0 0 .172.124h1.007l.464 1.38c.028.082.11.132.195.122a.181.181 0 0 0 .157-.168l1.089-17.822 1.709 26.301a.18.18 0 0 0 .177.169h.003a.18.18 0 0 0 .18-.163l.995-9.823 2.557-.057a.18.18 0 0 0 .14-.072c.009-.012.951-1.232 2.238-1.264.783-.021 1.556.408 2.281 1.271a.18.18 0 0 0 .139.065h.003l3.917-.06a.18.18 0 0 0 .164-.11l1.146-2.7.918 2.57a.182.182 0 0 0 .15.119l.953.107.409 1.447a.18.18 0 0 0 .354-.036l1.262-17.492 1.663 26.029a.18.18 0 0 0 .178.169h.003a.181.181 0 0 0 .18-.164l.932-9.698h2.932l.016-.001c.083-.007.123-.049.241-.176.3-.319 1.096-1.172 2.15-1.14.718.017 1.435.439 2.131 1.253.034.04.085.063.137.063h7.329a.181.181 0 1 0 0-.362zm-99.536 11.78c-6.315 1.768-12.735-1.485-14.934-7.566-1.387-3.834-.816-7.921 1.566-11.213 2.4-3.317 6.16-5.227 10.057-5.118 7.122.206 13.226 6.265 19.124 12.176-5.09 5.03-10.352 10.191-15.812 11.72zm41.87-1.142c-3.861 2.398-8.654 2.248-13.495-.422-4.231-2.334-8.206-6.301-12.05-10.155 3.852-3.807 7.834-7.726 11.882-10.06 4.612-2.658 8.654-2.944 12.721-.898 4.213 2.119 6.642 5.713 6.839 10.119a12.722 12.722 0 0 1 .009.864c-.101 4.273-2.357 8.346-5.907 10.551z"/></symbol><symbol id="icon-spritz" viewBox="0 0 27 32"><path fill="#bec8b7" style="fill:var(--color1,#bec8b7)" d="M26.583 20.091s.314.213.087.802c0 0-.109.29-.172.385 0 0-.369.644-.075.848 0 0 .5.334.7-.241 0 0 .144-.601.02-1.075-.029-.155-.202-.727-.559-.718z"/><path fill="#f5d19f" style="fill:var(--color2,#f5d19f)" d="M12.824 11.009a.235.235 0 1 1-.47 0v-.905a.235.235 0 1 1 .47 0v.905zM11.4 19.645s.579 2.366.604 2.499.591-.036.64-.241l.06-2.209s-1.086-.205-1.304-.048zm1.546.061-.024 2.052s.278.145.664.024l.579-2.112-1.219.036z"/><path fill="#fff" style="fill:var(--color3,#fff)" d="m12.098 30.969.057.543h.163s.453-8.722.326-9.609c0 0-.392.32-.64.175 0 0 .803 8.021-.917 9.886.806-.217.725-.371 1.012-.995zm.823-9.211s.483.115.664.024c0 0-.688 8.583.905 9.615 0 0-.869-.38-1.032-.905l-.018.453h-.235l-.284-9.186z"/><path fill="#f5d19f" style="fill:var(--color2,#f5d19f)" d="M11.954 10.719s-2.508 2.562-2.888 3.169c-.229.357-.568.515-.12 1.785.091.311.719 1.476.719 1.476s.425.776.969.331c.077-.264.138-.231-.095-.299 0 0-.373-.007-.578-.079-.538-.679-1.004-1.918-.885-2.715.448-.732 1.41-1.789 3.068-3.292.207-.152-.019-.375-.191-.375zm.961.036 3.127 2.84c1.019.759 2.326.891 2.901 1.288 0 0 .237 1.411.436 1.465 0 0-.453-.054-.453-.326l-.099-.542s-.203-.155-.058-.228c-.191-.238-2.076-.686-2.981-1.313l-3.039-2.858z"/><path fill="#fff" style="fill:var(--color3,#fff)" d="M9.928 21.165s2.7-5.106 2.01-10.485c.185-.183.271-.064.307-.038.102.429.428.816.657.016.043-.045.081-.066.141.014 0 0-.039.645.144 1.376a5.2 5.2 0 0 0 .245.739c.064.269-.26.496-.365.315 0 0 .097 5.778 2.245 6.883 0 0-.869 1.522-2.97.982 0 0-.652-.258-1.497.123 0 0-.435.344-.917.074zM7.079 14.103c-.563 1.953-1.254 3.468-1.542 3.385s-.065-1.734.498-3.686 1.254-3.469 1.542-3.385.065 1.734-.498 3.686z"/><path fill="#fff" style="fill:var(--color3,#fff)" d="M7.107 12.578c-.004.024-.002.036-.007.061-.064.371-.18.876-.333 1.426-.131.471-.265.858-.387 1.191l3.448 1.065c.426-.73.703-1.61.819-2.65z"/><path style="fill:var(--color4,#000)" d="M7.527 12.214c-.181 1.275-.655 2.483-1.055 3.705l11.21 3.461c.348-.38.586-.868.98-1.2.423.037.908.376 1.317.183.224-.308.203-.839-.22-.944-.367-.103-1.002-.213-.928-.729-.028-.365.118-.885-.231-1.134-3.437-1.017-6.87-2.136-10.305-3.194-.192.004-.715-.349-.769-.149z"/><path fill="#bec8b7" style="fill:var(--color1,#bec8b7)" d="m10.542 16.845 7.042 2.196.926-1.196 1.224.3.103-.382-1.236-.496-.029-.423h-8.03z"/><path fill="#fff" style="fill:var(--color3,#fff)" d="M7.079 14.077c-.563 1.953-1.254 3.468-1.542 3.385s-.065-1.734.498-3.686 1.254-3.469 1.542-3.385.065 1.734-.498 3.686z"/><path fill="#fff" style="fill:var(--color3,#fff)" d="m1.543 10.859-.817 2.65 5.654 1.745c.122-.333.256-.719.387-1.191.153-.55.269-1.055.333-1.426.004-.025.003-.037.007-.061l-.26-.081z"/><path style="fill:var(--color4,#000)" d="m26.712 20.192-6.658-2.055.039-.126 6.406 1.977c.077.117.144.152.213.204z"/><path fill="#fff" style="fill:var(--color3,#fff)" d="M26.536 21.547s-.158.231-.118.321c0 0 .122.177.19.104 0 0-.045-.235.018-.33 0 0-.086-.032-.091-.095z"/><path fill="#7e4008" style="fill:var(--color5,#7e4008)" d="M14.721 8.687s1.28 1.545 1.762-1.086c0 0-1.014 1.593-1.231.579l-.531.459"/><path fill="#f5d19f" style="fill:var(--color2,#f5d19f)" d="M16.035 6.078c0 2.347-1.373 4.249-3.066 4.249S9.903 8.425 9.903 6.078s1.373-4.249 3.066-4.249 3.066 1.902 3.066 4.249z"/><path fill="#7e4008" style="fill:var(--color5,#7e4008)" d="M8.527 8.733c.182.301.457.745.869.639.329-.136.587-.546.268-.971C8.543 7.342 7.795 5.772 8.05 4.208c.108-.602.282-1.223.651-1.718.781-.915 1.805-1.766 3.046-1.891 1.071-.108 2.037.562 2.671 1.371.315.39.583.817.82 1.258-.463-.432-.844-.736-1.741-.666s-1.796.772-2.396 1.533a2.969 2.969 0 0 0-.448 1.71c.016.498.259.941.53 1.344.391.683.542 1.62.012 2.274-.326.412-.858.635-1.371.693-.552.065-1.015-.38-1.164-.882a3.096 3.096 0 0 1-.134-.502z"/><path fill="#fff" style="fill:var(--color3,#fff)" d="M8.092 4.001s1.038-1.328 2.1-1.69l-.435-1.304s3.114-1.835 5.529-.459l-.266 2.124s-1.497-1.111-4.297.869l-.41-.917s-1.159.314-2.294 1.787l.072-.41z"/><path fill="#520" style="fill:var(--color6,#520)" d="M12.671 5.991s-.354-.578-1.313.301c-.008-.011.647-.492 1.313-.301zm-.064.545c0 .2-.114.362-.254.362s-.254-.162-.254-.362.114-.362.254-.362.254.162.254.362zm1.853-.63s.226-.639 1.347.021c.003-.011-.754-.353-1.347-.021zm.576.526c0 .164-.092.297-.206.297s-.207-.133-.207-.297.092-.297.206-.297.207.133.207.297z"/><path fill="#bf0d0b" style="fill:var(--color7,#bf0d0b)" d="M13.178 9.264c.149.223.661.546 1.088.034-.201.061-.591.283-1.088-.034z"/><path fill="#bf0d0b" style="fill:var(--color7,#bf0d0b)" d="M13.18 9.238c-.005 0 .419-.288.615-.078 0 0 .169-.254.448.102 0 0-.63.098-1.062-.024z"/><path fill="#f64c3f" style="fill:var(--color8,#f64c3f)" d="M12.997.447c-.005.073-.002.156 0 .24s.003.168.002.249c-.154.012-.314.033-.489.049l.002.046c.005.133.013.268.021.405.164-.019.319-.04.469-.054.003.166.008.333.016.507.136-.011.271-.013.404-.015a4.285 4.285 0 0 1-.018-.512c.146-.002.293-.001.457-.009.015-.131.031-.257.039-.379l.003-.043c-.182.001-.337-.009-.489-.011.002-.079.002-.162.001-.244s-.004-.163-.001-.235a4.188 4.188 0 0 0-.427.004l.011-.001z"/><path fill="#fff" style="fill:var(--color3,#fff)" d="M1.204 12.315C.751 13.886.251 15.121.087 15.074s.072-1.359.525-2.93.953-2.806 1.116-2.759c.163.047-.072 1.359-.525 2.93zm5.585.137.329.104c.097-.49.114-.826.049-.846s-.209.276-.378.742zm-.41 2.803-.28-.086c-.053.329-.076.612-.025.628s.182-.234.305-.541z"/></symbol><symbol id="icon-telephone" viewBox="0 0 32 32"><path d="M28.989 16.008c0 6.09-4.672 11.104-10.62 11.657a9.643 9.643 0 0 0-.23-.968l.017.069a13.681 13.681 0 0 0-.626-1.692l.036.09c4.925-.153 8.883-4.195 8.883-9.157s-3.958-9.002-8.883-9.157c.195-.428.396-.963.565-1.511l.027-.101c.09-.313.156-.606.211-.889 5.947.556 10.62 5.57 10.62 11.661zM3.365 9.012a104.23 104.23 0 0 0-.328 6.71l-.001.101h-.012c.002.061.006.122.006.183s-.004.122-.006.181h.012c.041 2.273.145 4.546.329 6.811.475 5.933 5.139 9.874 9.709 8.851.199-.04.41-.042.598-.12 1.113-.461 2.035-1.324 3.063-1.959 1.308-.822-1.514-7.791-3.264-6.89-.647.339-2.433 1.657-3.151 1.756-.64.09-1.143-.758-1.206-1.544-.168-2.068-.017-4.712-.003-6.907h.003l-.002-.181.002-.183H9.11c-.014-2.194-.166-4.837.003-6.906.063-.783.566-1.633 1.206-1.543.718.1 2.505 1.42 3.151 1.755 1.75.902 4.573-6.071 3.264-6.889-1.027-.637-1.95-1.5-3.063-1.959-.188-.078-.398-.081-.598-.12C8.504-.859 3.841 3.081 3.365 9.012zm8.441 9.574h4.078l.219-1.031h-2.601c.1-.123.214-.23.341-.324.129-.094.362-.244.699-.453l.539-.332c.455-.279.792-.533 1.015-.761a2.34 2.34 0 0 0 .641-1.173c.123-.576.036-1.037-.262-1.387-.3-.348-.763-.524-1.393-.524-.796 0-1.414.297-1.852.893-.23.311-.41.72-.534 1.227h1.138c.083-.334.177-.58.284-.732.186-.265.457-.398.812-.398.261 0 .444.084.547.251s.13.377.073.627c-.064.309-.248.593-.545.856-.195.166-.603.444-1.223.83-.716.444-1.199.862-1.449 1.261-.24.333-.422.725-.522 1.149l-.004.022zm9.278-2.198h-.675l.793-3.721h-1.314l-2.956 3.616-.219 1.022h2.357l-.27 1.282h1.144l.27-1.282h.675l.194-.917zm-3.31 0 2.035-2.572-.545 2.572h-1.491z"/></symbol></defs></svg>