<svg aria-hidden="true" style="position: absolute; width: 0; height: 0; overflow: hidden;" version="1.1" xmlns="http://www.w3.org/2000/svg" xmlns:xlink="http://www.w3.org/1999/xlink">
<defs>
<symbol id="icon-logo" viewBox="0 0 32 32">
<path  d="M0 16c0-8.836 7.163-16 16-16h16v16c0 8.837-7.163 16-16 16h-16v-16z"></path>
<path fill="#1ebb92" style="fill: var(--color2, #1ebb92)" d="M27 16c0 1.657-1.343 3-3 3h-2c-1.657 0-3-1.343-3-3s1.343-3 3-3h2c1.657 0 3 1.343 3 3z"></path>
<path fill="#fff" style="fill: var(--color3, #fff)" d="M12.906 8.094c0-1.709 1.385-3.094 3.094-3.094s3.094 1.385 3.094 3.094v4.813h0.021c-0.858 0.758-1.396 1.86-1.396 3.089 0 0.002 0 0.003 0 0.005v-0c0 0.002 0 0.003 0 0.005 0 1.228 0.538 2.331 1.392 3.085l0.004 0.004h-0.021v4.812c0 1.709-1.385 3.094-3.094 3.094s-3.094-1.385-3.094-3.094v0-4.812h-4.813c-1.709 0-3.094-1.385-3.094-3.094s1.385-3.094 3.094-3.094v0h4.813v-4.813z"></path>
</symbol>
<symbol id="icon-burger" viewBox="0 0 48 32">
<path d="M0 5.334v-5.334h48v5.334h-48zM0 18.666h48v-5.332h-48v5.332zM0 32h48v-5.334h-48v5.334z"></path>
</symbol>
<symbol id="icon-telegram" viewBox="0 0 32 32">
<path d="M32 0l-32 18 10.227 3.787 15.773-14.787-11.997 16.187 0.009 0.003-0.012-0.003v8.813l5.735-6.691 7.267 2.691 4.999-28z"></path>
</symbol>
<symbol id="icon-close" viewBox="0 0 32 32">
<path d="M32 3.223l-3.223-3.223-12.777 12.777-12.777-12.777-3.223 3.223 12.777 12.777-12.777 12.777 3.223 3.223 12.777-12.777 12.777 12.777 3.223-3.223-12.777-12.777 12.777-12.777z"></path>
</symbol>
<symbol id="icon-viber" viewBox="0 0 32 32">
<path fill="#7d529c" style="fill: var(--color1, #7d529c)" d="M5.627 26.433c-0.708-0.693-1.324-1.461-1.87-2.284-1.058-1.597-1.772-3.339-2.148-5.215-0.13-0.652-0.213-1.31-0.252-1.973-0.041-0.687-0.044-1.372 0.012-2.056 0.216-2.649 1.064-5.081 2.596-7.259 2.089-2.969 4.898-4.919 8.406-5.855 0.773-0.207 1.564-0.329 2.364-0.403 0.67-0.062 1.342-0.077 2.012-0.044 2.815 0.145 5.384 1.013 7.704 2.619 0.714 0.495 1.378 1.055 1.997 1.668 0.018 0.018 0.030 0.039 0.044 0.056-0.018 0.074-0.077 0.113-0.127 0.16-1.23 1.23-2.459 2.462-3.692 3.689-0.047 0.047-0.083 0.092-0.098 0.157-0.083 0.003-0.098-0.080-0.151-0.116-1.378-1.396-3.031-2.255-4.972-2.542-0.471-0.071-0.948-0.133-1.428-0.124-0.136 0.003-0.255 0.039-0.353 0.13-0.13 0.119-0.175 0.299-0.107 0.459 0.074 0.172 0.204 0.276 0.397 0.279 0.43 0.009 0.859 0.039 1.283 0.098 0.551 0.080 1.093 0.21 1.621 0.4 0.907 0.32 1.704 0.818 2.436 1.437 0.065 0.053 0.121 0.116 0.181 0.175 0.121 0.145 0.281 0.258 0.391 0.415-0.080 0.139-0.201 0.24-0.323 0.338-0.11 0.092-0.204 0.199-0.311 0.293-0.059 0.050-0.053 0.124-0.089 0.181-0.062 0.003-0.086-0.050-0.121-0.086-0.833-0.898-1.87-1.416-3.049-1.686-0.376-0.086-0.759-0.133-1.141-0.178-0.21-0.024-0.388 0.041-0.492 0.231-0.080 0.151-0.077 0.314 0.030 0.462 0.077 0.107 0.187 0.157 0.317 0.172 0.35 0.036 0.696 0.077 1.040 0.151 0.853 0.187 1.636 0.519 2.299 1.099 0.116 0.121 0.234 0.237 0.353 0.356 0.027 0.027 0.065 0.047 0.065 0.092-0.255 0.24-0.48 0.51-0.756 0.729-0.015 0.003-0.030 0-0.044-0.003-0.216-0.219-0.441-0.421-0.717-0.566-0.504-0.267-1.040-0.391-1.609-0.382-0.181 0.003-0.32 0.133-0.361 0.317-0.044 0.204 0.033 0.385 0.207 0.477 0.098 0.050 0.204 0.065 0.314 0.074 0.436 0.033 0.844 0.136 1.212 0.388 0.116 0.080 0.213 0.175 0.302 0.281 0.021 0.033 0.036 0.065 0.030 0.107-1.215 1.215-2.421 2.439-3.647 3.639-0.498 0.486-0.99 0.978-1.484 1.467-0.101-0.021-0.133-0.121-0.207-0.172-0.409-0.453-0.753-0.951-1.055-1.479-0.287-0.501-0.53-1.025-0.717-1.576-0.169-0.504-0.047-0.93 0.359-1.274 0.222-0.19 0.459-0.359 0.681-0.545 0.4-0.335 0.53-0.767 0.459-1.271-0.053-0.37-0.273-0.664-0.45-0.975-0.542-0.945-1.233-1.787-1.923-2.625-0.364-0.441-0.96-0.56-1.52-0.252-0.83 0.453-1.544 1.052-2.036 1.876-0.317 0.53-0.394 1.087-0.175 1.701 0.308 0.853 0.673 1.677 1.084 2.48 0.533 1.037 1.093 2.056 1.751 3.022 0.56 0.827 1.17 1.615 1.855 2.341 0.047 0.080 0.116 0.139 0.178 0.204 0.039 0.041 0.092 0.074 0.086 0.142-0.065 0.086-0.157 0.151-0.231 0.225-1.452 1.455-2.898 2.913-4.359 4.356-0.646 0.637-1.295 1.274-1.938 1.914-0.027 0.036-0.059 0.077-0.113 0.086z"></path>
<path fill="#3f284f" style="fill: var(--color2, #3f284f)" d="M19.704 12.444c0.222-0.225 0.444-0.453 0.67-0.679 0.015-0.015 0.041-0.021 0.065-0.030 0.080 0.006 0.116 0.071 0.157 0.121 0.681 0.827 1.040 1.778 1.111 2.844 0.015 0.222 0.015 0.444 0.027 0.664 0.012 0.193 0.148 0.359 0.32 0.403 0.184 0.047 0.361-0.024 0.477-0.19 0.050-0.071 0.068-0.151 0.068-0.237 0.030-1.028-0.157-2.012-0.607-2.942-0.196-0.406-0.441-0.779-0.738-1.123-0.044-0.050-0.104-0.095-0.095-0.175-0.027-0.059-0.024-0.104 0.030-0.154 0.228-0.21 0.45-0.424 0.673-0.637 0.083 0.006 0.127 0.074 0.175 0.127 0.921 1.055 1.481 2.284 1.745 3.656 0.133 0.684 0.207 1.375 0.204 2.071-0.003 0.293 0.169 0.492 0.415 0.504 0.27 0.012 0.468-0.178 0.48-0.468 0.012-0.228-0.021-0.453-0.036-0.679-0.039-0.51-0.095-1.019-0.193-1.526-0.279-1.446-0.836-2.761-1.772-3.908-0.068-0.083-0.151-0.157-0.19-0.261 0.071-0.095 0.13-0.018 0.181 0.021 0.406 0.299 0.806 0.601 1.209 0.904 2.163 1.624 4.329 3.244 6.492 4.868 0.056 0.041 0.113 0.080 0.151 0.142 0.009 0.545 0.003 1.090-0.047 1.636-0.080 0.856-0.231 1.701-0.456 2.53-0.302 1.114-0.741 2.175-1.298 3.191-0.45 0.818-0.972 1.585-1.564 2.302-0.581 0.702-1.227 1.345-1.932 1.929-0.99 0.821-2.068 1.502-3.233 2.041-1.013 0.468-2.065 0.815-3.161 1.040-0.48 0.098-0.966 0.166-1.449 0.231-0.11 0.015-0.222 0.015-0.335 0.024-0.071-0.024-0.089-0.089-0.116-0.145-0.359-0.785-0.72-1.57-1.079-2.356-0.341-0.75-0.681-1.499-1.025-2.249-0.347-0.753-0.69-1.508-1.037-2.261s-0.687-1.508-1.034-2.261c-0.196-0.427-0.382-0.856-0.587-1.277-0.027-0.053-0.098-0.113-0.021-0.181 0.098 0.003 0.16 0.074 0.222 0.133 0.439 0.418 0.892 0.821 1.369 1.2 0.696 0.554 1.431 1.055 2.193 1.517 0.975 0.593 1.988 1.117 3.016 1.612 0.516 0.249 1.052 0.453 1.597 0.628 0.436 0.139 0.859 0.071 1.268-0.113 0.332-0.148 0.622-0.356 0.886-0.61 0.444-0.433 0.844-0.898 1.15-1.443 0.163-0.287 0.243-0.593 0.207-0.924-0.033-0.296-0.175-0.536-0.397-0.723-0.699-0.578-1.39-1.173-2.16-1.659-0.308-0.196-0.616-0.394-0.939-0.566-0.35-0.184-0.711-0.243-1.102-0.136-0.299 0.083-0.513 0.267-0.696 0.498-0.175 0.219-0.344 0.444-0.524 0.661-0.299 0.359-0.687 0.456-1.12 0.35-0.652-0.16-1.256-0.441-1.831-0.785-0.548-0.329-1.046-0.726-1.49-1.185-0.044-0.044-0.119-0.080-0.098-0.166 0.006-0.062 0.053-0.092 0.092-0.13 1.636-1.627 3.271-3.253 4.907-4.88 0.039-0.039 0.071-0.083 0.13-0.092 0.074 0 0.095 0.065 0.124 0.113 0.231 0.37 0.32 0.779 0.356 1.206 0.006 0.080 0.006 0.157 0.027 0.234 0.068 0.24 0.267 0.373 0.501 0.332 0.21-0.036 0.364-0.231 0.353-0.462-0.039-0.72-0.19-1.404-0.64-1.994-0.027-0.033-0.062-0.071-0.044-0.127z"></path>
<path fill="#5f3e77" style="fill: var(--color3, #5f3e77)" d="M12.364 19.964c-0.044 0.041-0.003 0.071 0.012 0.104 0.468 1.016 0.936 2.030 1.401 3.046 0.427 0.927 0.847 1.852 1.271 2.779 0.477 1.043 0.954 2.086 1.431 3.129 0.255 0.554 0.51 1.108 0.764 1.665-0.444 0.021-0.886 0.041-1.33 0.039-2.613-0.018-5.049-0.687-7.31-1.997-1.046-0.604-1.997-1.339-2.865-2.181-0.039-0.039-0.074-0.077-0.113-0.119 0.041-0.047 0.083-0.098 0.127-0.142 2.13-2.092 4.237-4.21 6.35-6.32 0.050-0.050 0.101-0.095 0.166-0.121 0.074 0.006 0.113 0.041 0.095 0.119z"></path>
<path fill="#5f3e77" style="fill: var(--color3, #5f3e77)" d="M30.72 15.763c-0.279-0.169-0.524-0.379-0.782-0.572-1.295-0.966-2.587-1.938-3.879-2.907-1.076-0.806-2.154-1.615-3.23-2.424-0.041-0.030-0.077-0.062-0.13-0.056-0.071-0.012-0.136-0.030-0.121-0.124-0.044-0.086 0.024-0.124 0.071-0.172 1.081-1.081 2.166-2.166 3.247-3.247 0.196-0.196 0.394-0.385 0.593-0.578 0.708 0.699 1.324 1.476 1.864 2.308 1.043 1.606 1.751 3.348 2.11 5.23 0.151 0.785 0.237 1.576 0.261 2.376 0.003 0.059 0 0.113-0.003 0.166z"></path>
<path fill="#dcdcdc" style="fill: var(--color4, #dcdcdc)" d="M12.364 19.964c-0.003-0.062-0.047-0.089-0.092-0.119-0.086-0.113-0.216-0.187-0.279-0.32 0.101-0.024 0.136 0.062 0.187 0.116 0.080 0.086 0.133 0.095 0.228 0.009 0.456-0.406 0.868-0.859 1.307-1.283 0.059-0.059 0.092-0.116 0.021-0.19-0.027-0.030-0.050-0.065-0.018-0.107 0.077 0.039 0.116 0.119 0.178 0.172 0.708 0.779 1.55 1.369 2.516 1.787 0.281 0.121 0.569 0.225 0.865 0.305 0.45 0.124 0.841 0.027 1.144-0.341 0.163-0.199 0.329-0.394 0.477-0.604 0.516-0.744 1.369-0.714 1.932-0.394 0.978 0.554 1.881 1.215 2.735 1.944 0.083 0.071 0.169 0.139 0.252 0.207 0.504 0.421 0.649 0.981 0.353 1.567-0.43 0.85-1.025 1.57-1.834 2.089-0.492 0.317-1.034 0.462-1.612 0.276-0.61-0.196-1.206-0.439-1.781-0.72-1.407-0.687-2.782-1.431-4.068-2.329-0.815-0.569-1.582-1.197-2.296-1.887-0.068-0.062-0.142-0.119-0.213-0.178z"></path>
<path fill="#fefefe" style="fill: var(--color5, #fefefe)" d="M13.719 18.074c0 0.006 0 0.012 0 0.015 0.116 0.207 0.116 0.207-0.068 0.391-0.332 0.332-0.661 0.664-0.993 0.993-0.098 0.098-0.204 0.184-0.305 0.279-0.047 0.044-0.080 0.036-0.124-0.006-0.080-0.071-0.136-0.169-0.237-0.216-0.4-0.391-0.75-0.827-1.090-1.268-1.363-1.772-2.415-3.724-3.31-5.763-0.16-0.361-0.29-0.735-0.394-1.114-0.151-0.554 0.024-1.052 0.302-1.523 0.311-0.521 0.756-0.921 1.224-1.295 0.302-0.24 0.613-0.468 0.981-0.601 0.519-0.19 1.040-0.053 1.387 0.376 0.459 0.566 0.936 1.123 1.348 1.727 0.311 0.456 0.613 0.921 0.865 1.413 0.249 0.495 0.237 0.99-0.050 1.47-0.133 0.222-0.359 0.35-0.548 0.513-0.148 0.13-0.314 0.24-0.459 0.37-0.329 0.287-0.453 0.661-0.323 1.070 0.341 1.076 0.88 2.044 1.591 2.921 0.068 0.083 0.136 0.166 0.204 0.249z"></path>
<path fill="#fefefe" style="fill: var(--color5, #fefefe)" d="M21.481 9.926c-0.456-0.409-0.942-0.779-1.479-1.081-0.91-0.513-1.887-0.818-2.924-0.942-0.373-0.044-0.747-0.062-1.123-0.080-0.27-0.012-0.468-0.219-0.462-0.477 0.003-0.255 0.216-0.468 0.477-0.468 2.166 0.021 4.119 0.64 5.796 2.044 0.243 0.201 0.477 0.412 0.69 0.649 0.059 0.065 0.056 0.127-0.009 0.193-0.148 0.148-0.299 0.296-0.447 0.447-0.077 0.077-0.145 0.080-0.225 0-0.092-0.098-0.181-0.201-0.293-0.284z"></path>
<path fill="#dcdcdc" style="fill: var(--color4, #dcdcdc)" d="M21.481 9.926c0.13 0.041 0.196 0.157 0.281 0.246 0.083 0.083 0.139 0.098 0.225 0.006 0.136-0.148 0.279-0.287 0.424-0.427 0.059-0.056 0.071-0.11 0.041-0.178 0.062 0.012 0.059 0.095 0.119 0.113 0.024 0.056 0.080 0.083 0.121 0.124 0.293 0.356 0.581 0.72 0.824 1.114 0.581 0.945 0.954 1.964 1.164 3.052 0.145 0.744 0.21 1.493 0.222 2.249 0.003 0.204-0.095 0.361-0.281 0.45-0.169 0.080-0.338 0.059-0.489-0.053-0.136-0.104-0.19-0.249-0.193-0.415-0.003-0.533-0.039-1.064-0.116-1.594-0.24-1.624-0.833-3.087-1.97-4.299-0.121-0.13-0.246-0.261-0.373-0.388z"></path>
<path fill="#fefefe" style="fill: var(--color5, #fefefe)" d="M20.030 11.319c-0.498-0.415-1.055-0.726-1.671-0.927-0.527-0.172-1.073-0.264-1.624-0.314-0.308-0.027-0.486-0.216-0.474-0.51 0.012-0.27 0.228-0.459 0.53-0.436 1.357 0.104 2.616 0.477 3.701 1.339 0.207 0.166 0.412 0.338 0.578 0.548 0.036 0.062 0.009 0.113-0.036 0.157-0.151 0.154-0.305 0.308-0.459 0.459-0.074 0.074-0.142 0.068-0.216-0.006-0.107-0.104-0.204-0.222-0.329-0.311z"></path>
<path fill="#dcdcdc" style="fill: var(--color4, #dcdcdc)" d="M20.030 11.319c0.142 0.050 0.219 0.178 0.317 0.279 0.089 0.092 0.145 0.086 0.228-0.003 0.133-0.145 0.276-0.281 0.418-0.421 0.044-0.041 0.083-0.083 0.077-0.151 0.039 0.018 0.041 0.077 0.089 0.083 0.673 0.753 1.114 1.621 1.33 2.604 0.119 0.536 0.166 1.081 0.151 1.633-0.009 0.293-0.21 0.489-0.486 0.483-0.273-0.006-0.468-0.21-0.465-0.507 0.006-0.687-0.074-1.357-0.305-2.009-0.21-0.59-0.53-1.111-0.945-1.576-0.136-0.136-0.273-0.276-0.409-0.415z"></path>
<path fill="#fefefe" style="fill: var(--color5, #fefefe)" d="M18.987 13.070c-0.394-0.439-0.91-0.604-1.479-0.655-0.077-0.006-0.157-0.012-0.234-0.030-0.234-0.050-0.379-0.258-0.359-0.507 0.018-0.228 0.204-0.424 0.439-0.418 0.836 0.021 1.597 0.24 2.207 0.85 0.041 0.041 0.074 0.092 0.113 0.136 0.041 0.056-0.003 0.092-0.036 0.124-0.16 0.166-0.323 0.329-0.489 0.489-0.053 0.053-0.107 0.074-0.163 0.009z"></path>
<path fill="#dcdcdc" style="fill: var(--color4, #dcdcdc)" d="M18.987 13.070c0.041 0.012 0.080 0.030 0.121-0.012 0.181-0.187 0.367-0.37 0.548-0.554 0.012-0.012 0.012-0.036 0.018-0.053 0.009 0 0.021-0.003 0.030-0.003 0.495 0.619 0.684 1.342 0.729 2.119 0.015 0.249-0.163 0.48-0.394 0.516-0.267 0.039-0.501-0.113-0.545-0.379-0.047-0.287-0.050-0.581-0.133-0.859-0.074-0.246-0.163-0.486-0.332-0.687-0.015-0.033-0.030-0.059-0.041-0.086z"></path>
</symbol>
</defs>
</svg>
