<svg aria-hidden="true" style="position: absolute; width: 0; height: 0; overflow: hidden;" version="1.1" xmlns="http://www.w3.org/2000/svg" xmlns:xlink="http://www.w3.org/1999/xlink">
<defs>
<symbol id="icon-logo" viewBox="0 0 32 32">
<path  d="M0 16c0-8.836 7.163-16 16-16h16v16c0 8.837-7.163 16-16 16h-16v-16z"></path>
<path fill="#1ebb92" style="fill: var(--color2, #1ebb92)" d="M27 16c0 1.657-1.343 3-3 3h-2c-1.657 0-3-1.343-3-3s1.343-3 3-3h2c1.657 0 3 1.343 3 3z"></path>
<path fill="#fff" style="fill: var(--color3, #fff)" d="M12.906 8.094c0-1.709 1.385-3.094 3.094-3.094s3.094 1.385 3.094 3.094v4.813h0.021c-0.858 0.758-1.396 1.86-1.396 3.089 0 0.002 0 0.003 0 0.005v-0c0 0.002 0 0.003 0 0.005 0 1.228 0.538 2.331 1.392 3.085l0.004 0.004h-0.021v4.812c0 1.709-1.385 3.094-3.094 3.094s-3.094-1.385-3.094-3.094v0-4.812h-4.813c-1.709 0-3.094-1.385-3.094-3.094s1.385-3.094 3.094-3.094v0h4.813v-4.813z"></path>
</symbol>
</defs>
</svg>
